# xmcd
#
# Track frame offsets:
#	150
#	15507
#	31933
#	46998
#	64773
#	82107
#	100441
#	118082
#	130838
#	143635
#	156432
#	173956
#	188473
#	207402
#	222218
#	239035
#	257300
#	257960
#	258703
#	259336
#	260213
#	261106
#	261871
#	262617
#	263683
#	264486
#	265208
#
# Disc length: 3544 seconds
#
# Revision: 1
# Processed by: cddbd v1.5.2PL0 Copyright (c) Steve Scherf et al.
# Submitted via: audiograbber 1.83.01
#
DISCID=990dd61b
DTITLE=Various Artist - CDX Volume 575 (July 22, 2013)
DYEAR=2013
DGENRE=Country
TTITLE0=Josh Thompson - Cold Beer With Your Name On It
TTITLE1=Bush Hawg - Crushin' [Single Edit]
TTITLE2=Colt Ford (featuring Jason Aldean) - Drivin' Around Song 
TTITLE3=Frankie Ballard - Helluva Life 
TTITLE4=Henningsens - I Miss You [Radio Mix]
TTITLE5=Blake Shelton - Mine Would Be You
TTITLE6=Ashton Shepherd - This Is America
TTITLE7=Kelly Clarkson  - Tie It Up [Single Edit]
TTITLE8=Angel Mary and The Tennessee Werewolves - Folsom Prison Blues [Radio Mix]
TTITLE9=Angel Mary and The Tennessee Werewolves - Folsom Prison Blues [Alternativ
TTITLE9=e Mature Lyrics]
TTITLE10=Zane Williams - Overnight Success
TTITLE11=Due West - Slide On Over
TTITLE12=Joe Bachman - A Soldier's Memoir (PTSD Song)
TTITLE13=Lisa Matassa - I Won't Ask
TTITLE14=Alexandra Demetree (featuring Wes Hayden) - Lay It On Me 
TTITLE15=Jolie Holliday - Waffle House
TTITLE16=Ronnie Dunn - Radio Liner - Check out my new single
TTITLE17=Ronnie Dunn - Radio Liner - I Hope You're About to Hear My New Single
TTITLE18=Ronnie Dunn - Radio Liner - My New Song Kiss You There
TTITLE19=Jacob Martin Band - Radio Liner - Thanks for Hanging Out 
TTITLE20=Jacob Martin Band - Radio Liner - You're Listening to Hometown Country
TTITLE21=Jacob Martin Band - Radio Liner - Today's Hot Country Music
TTITLE22=Jacob Martin Band - Radio Liner - Kickin' Country
TTITLE23=Jacob Martin Band - Radio Liner - Our New Single 
TTITLE24=Jacob Martin Band - Radio Liner - Super Country
TTITLE25=Jacob Martin Band - Radio Liner - The Best in Country Music
TTITLE26=Jacob Martin Band - Radio Liner - Today's Best Country
EXTD=
EXTT0=
EXTT1=
EXTT2=
EXTT3=
EXTT4=
EXTT5=
EXTT6=
EXTT7=
EXTT8=
EXTT9=
EXTT10=
EXTT11=
EXTT12=
EXTT13=
EXTT14=
EXTT15=
EXTT16=
EXTT17=
EXTT18=
EXTT19=
EXTT20=
EXTT21=
EXTT22=
EXTT23=
EXTT24=
EXTT25=
EXTT26=
PLAYORDER=
